<?xml version='1.0' encoding='utf-8'?>
<svg xmlns="http://www.w3.org/2000/svg" width="1920" height="1080" viewBox="0 0 1920 1080" data-theme="light" data-semantic-intent="taxonomy_list" data-relation-type="taxonomy" data-site-visual-identity="signal-cobalt">
  <style>
        @font-face {
            font-family: 'Inter';
            src: url('assets/fonts/Inter-Regular.ttf') format('truetype');
            font-weight: 400;
            font-style: normal;
            font-display: swap;
        }
        @font-face {
            font-family: 'Inter';
            src: url('assets/fonts/Inter-Bold.ttf') format('truetype');
            font-weight: 600;
            font-style: normal;
            font-display: swap;
        }
        @font-face {
            font-family: 'Inter';
            src: url('assets/fonts/Inter-Bold.ttf') format('truetype');
            font-weight: 800;
            font-style: normal;
            font-display: swap;
        }
        
:root {
    --background: #f8fafc;
    --panel: #ffffff;
    --primary-text: #0f172a;
    --muted-text: #64748b;
    --inverse-text: #ffffff;
    --border: #e2e8f0;
    --shadow-color: #000000;
    --icon-pad-bg: #1e293b;
    --art-glow: #0891b2;
    --art-glow-opacity: 0.10;
    --art-sheen: #ffffff;
    --art-sheen-opacity: 0.34;
    --art-shadow: #0f172a;
    --art-shadow-opacity: 0.14;
    --art-muted-line: #94a3b8;
    --art-panel-tint: #f1f5f9;
    --semantic-risk: #b91c1c;
    --semantic-warning: #c2410c;
    --semantic-uncertain: #a16207;
    --semantic-evidence: #1d4ed8;
    --semantic-claim: #6d28d9;
    --semantic-positive: #15803d;
    --semantic-outcome: #0e7490;
    --font-family: 'Inter', 'Segoe UI', 'Kalam', Roboto, Helvetica, Arial, sans-serif;
    --radius-xl: 16px;
    --font-family-headline: 'Segoe UI Variable Display', 'Aptos Display', 'Inter', 'Segoe UI', Helvetica, Arial, sans-serif;
    --font-family-body: 'Segoe UI Variable Text', 'Aptos', 'Inter', 'Segoe UI', Helvetica, Arial, sans-serif;
    --font-heading: var(--font-family-headline);
    --font-body: var(--font-family-body);
    --font-size-h1: 64px;
    --font-size-h2: 42px;
    --font-size-h3: 29px;
    --font-size-body: 21px;
    --font-size-caption: 17px;
    --secondary-text: var(--muted-text);
    --panel-border: var(--border);
    --font-weight-normal: 400;
    --font-weight-medium: 500;
    --font-weight-semibold: 600;
    --font-weight-bold: 700;
    --spacing-gutter-pct: 0.07;
    --spacing-top-pct: 0.15;
    --spacing-bottom-pct: 0.07;
    --spacing-title-y-pct: 0.055;
    --accent-1: #1d4ed8;
    --accent-2: #2563eb;
    --accent-3: #4f46e5;
    --accent-4: #6d28d9;
    --accent-5: #0369a1;
    --accent-6: #c2410c;
}
:root[data-theme="dark"] {
    --background: #0f172a;
    --panel: #1e293b;
    --primary-text: #f1f5f9;
    --muted-text: #94a3b8;
    --inverse-text: #0f172a;
    --border: #334155;
    --shadow-color: #000000;
    --icon-pad-bg: #1e293b;
    --art-glow: #7dd3fc;
    --art-glow-opacity: 0.18;
    --art-sheen: #ffffff;
    --art-sheen-opacity: 0.18;
    --art-shadow: #000000;
    --art-shadow-opacity: 0.28;
    --art-muted-line: #64748b;
    --art-panel-tint: #1e293b;
    --semantic-risk: #f87171;
    --semantic-warning: #fb923c;
    --semantic-uncertain: #fbbf24;
    --semantic-evidence: #60a5fa;
    --semantic-claim: #c084fc;
    --semantic-positive: #4ade80;
    --semantic-outcome: #22d3ee;
    --accent-1: #93c5fd;
    --accent-2: #60a5fa;
    --accent-3: #818cf8;
    --accent-4: #a78bfa;
    --accent-5: #38bdf8;
    --accent-6: #fb923c;
}
:root[data-theme="light"] {
    --background: #f8fafc;
    --panel: #ffffff;
    --primary-text: #0f172a;
    --muted-text: #64748b;
    --inverse-text: #ffffff;
    --border: #e2e8f0;
    --shadow-color: #000000;
    --icon-pad-bg: #1e293b;
    --art-glow: #0891b2;
    --art-glow-opacity: 0.10;
    --art-sheen: #ffffff;
    --art-sheen-opacity: 0.34;
    --art-shadow: #0f172a;
    --art-shadow-opacity: 0.14;
    --art-muted-line: #94a3b8;
    --art-panel-tint: #f1f5f9;
    --semantic-risk: #b91c1c;
    --semantic-warning: #c2410c;
    --semantic-uncertain: #a16207;
    --semantic-evidence: #1d4ed8;
    --semantic-claim: #6d28d9;
    --semantic-positive: #15803d;
    --semantic-outcome: #0e7490;
    --accent-1: #1d4ed8;
    --accent-2: #2563eb;
    --accent-3: #4f46e5;
    --accent-4: #6d28d9;
    --accent-5: #0369a1;
    --accent-6: #c2410c;
}</style>
  <rect x="0" y="0" width="1.92E+3" height="1.08E+3" fill="#f8fafc" stroke="none" id="programmatic_background"/>
  <line id="HEADER_DECOR" x1="960.0" x2="1080.0" y1="135.0" y2="135.0" stroke="var(--accent-1)" stroke-width="6" stroke-linecap="round"/>
  <defs>
    <pattern id="svg301c793e-napkin-hatch" patternUnits="userSpaceOnUse" width="12" height="12">
      <path d="M -3 12 L 12 -3 M 0 15 L 15 0" fill="none" stroke="var(--primary-text)" stroke-width="1" stroke-opacity="0.05"/>
    </pattern>
    <filter id="svg301c793e-shadow" x="-30%" y="-30%" width="160%" height="160%">
      <feDropShadow dx="0" dy="2" stdDeviation="3" flood-color="#000000" flood-opacity="0.08"/>
      <feDropShadow dx="0" dy="6" stdDeviation="10" flood-color="#000000" flood-opacity="0.12"/>
    </filter>
    <marker id="svg301c793e-arrowhead" markerWidth="10" markerHeight="10" refX="9" refY="5" orient="auto">
      <path d="M 0 0 L 10 5 L 0 10 Z" fill="var(--accent-1)"/>
    </marker>
    <filter id="svg301c793e-text-glow" x="-20%" y="-20%" width="140%" height="140%">
      <feDropShadow dx="0" dy="0" stdDeviation="2" flood-color="#000000" flood-opacity="0.4"/>
    </filter>
    <radialGradient id="svg301c793e-universal-edge-vignette" cx="50%" cy="50%" r="72%">
      <stop offset="0%" stop-color="var(--background)" stop-opacity="0"/>
      <stop offset="72%" stop-color="var(--background)" stop-opacity="0.12"/>
      <stop offset="100%" stop-color="var(--primary-text)" stop-opacity="0.08"/>
    </radialGradient>
    <linearGradient id="svg301c793e-universal-surface-sheen" x1="0%" y1="0%" x2="100%" y2="100%">
      <stop offset="0%" stop-color="var(--art-sheen)" stop-opacity="var(--art-sheen-opacity)"/>
      <stop offset="46%" stop-color="var(--art-sheen)" stop-opacity="0.035"/>
      <stop offset="100%" stop-color="var(--art-panel-tint)" stop-opacity="0.14"/>
    </linearGradient>
    <radialGradient id="svg301c793e-universal-icon-aura" cx="50%" cy="42%" r="64%">
      <stop offset="0%" stop-color="var(--art-glow)" stop-opacity="var(--art-glow-opacity)"/>
      <stop offset="100%" stop-color="var(--background)" stop-opacity="0"/>
    </radialGradient>
  </defs>
  <rect width="100%" height="100%" fill="var(--background)" id="CANVAS_BG"/>
  <rect width="100%" height="100%" fill="url(#svg301c793e-napkin-hatch)"/>
  <rect id="UNIVERSAL_EDGE_VIGNETTE" width="100%" height="100%" fill="url(#svg301c793e-universal-edge-vignette)" opacity="0.62"/>
  <text id="TITLE" x="960.0" y="59" text-anchor="middle" font-weight="700" font-size="72" fill="#0f172a" style="font-size: 69px; font-family: 'Segoe UI Variable Display', 'Aptos Display', 'Inter', 'Segoe UI', Helvetica, Arial, sans-serif; font-weight: 800; font-kerning: normal; font-feature-settings: &quot;kern&quot; 1, &quot;liga&quot; 1; letter-spacing:-1.2px;" data-final-font-size="69">
    <tspan x="960.0" dy="70.47px">Allegations of Research Misconduct</tspan>
  </text>
  <rect id="TITLE_FRAME" x="134" y="59" width="1652" height="103" fill="none"/>
  <g id="DIAGRAM_SCALER" transform="translate(28.8, 27.0) scale(0.97)">
    <path d="M 960 360 L 960 450" stroke="var(--muted-text)" stroke-width="3.0" fill="none" opacity="0.52"/>
    <path d="M 210.0 450 L 1710.0 450" stroke="var(--muted-text)" stroke-width="3.0" fill="none" opacity="0.52"/>
    <path d="M 210.0 450 L 210.0 570" stroke="var(--muted-text)" stroke-width="3.0" fill="none" opacity="0.52"/>
    <path d="M 693.3 450 L 693.3 570" stroke="var(--muted-text)" stroke-width="3.0" fill="none" opacity="0.52"/>
    <path d="M 1226.7 450 L 1226.7 570" stroke="var(--muted-text)" stroke-width="3.0" fill="none" opacity="0.52"/>
    <path d="M 1710.0 450 L 1710.0 570" stroke="var(--muted-text)" stroke-width="3.0" fill="none" opacity="0.52"/>
    <g transform="translate(960.0, 270.0)">
      <rect id="ITEM_1_BG" x="-210" y="-90" width="420" height="180" rx="24" fill="var(--panel)" fill-opacity="0.86" stroke="var(--primary-text)" stroke-width="2.6"/>
      <circle id="ITEM_1_PAD" cx="0" cy="40" r="42" fill="var(--icon-pad-bg)" stroke="var(--semantic-claim)" opacity="1" fill-opacity="0.9" stroke-width="2" stroke-opacity="0.72" data-badge-layer="pad"/>
      <circle id="ITEM_1_PAD_INNER" cx="0" cy="40" r="32.76" fill="var(--semantic-claim)" fill-opacity="0.12" stroke="none" data-badge-layer="tint"/>
      <circle cx="0" cy="40" r="33.6" fill="none" stroke="var(--accent-1)" stroke-width="3" stroke-dasharray="6 4" display="none" data-suppressed-decoration="redundant-badge-ring"/>
      <g id="ITEM_1_ICON" transform="translate(-36.0, 4.0)" data-icon-size="72" stroke-linecap="round" stroke-linejoin="round" data-badge-treatment="clean">
        <g transform="translate(-2.4,-2.3999999999999986) scale(2.4)">
          <rect x="1" y="5" width="30" height="22" rx="1.5" fill="#B4ACBC"/>
          <rect x="2" y="7" width="28" height="18" rx="1" fill="#CDC4D6"/>
          <path d="M30 23.4001L17.029 15.6175C16.3956 15.2375 15.6044 15.2375 14.971 15.6175L2 23.4001V25.0001C2 25.5524 2.44771 26.0001 3 26.0001L29 26.0001C29.5523 26.0001 30 25.5524 30 25.0001V23.4001Z" fill="#E1D8EC"/>
          <path d="M2 9.76619V8H30V9.76619L17.5435 17.2401C16.5934 17.8101 15.4066 17.8101 14.4565 17.2401L2 9.76619Z" fill="#998EA4"/>
          <path d="M2 8.6V7C2 6.44772 2.44772 6 3 6H29C29.5523 6 30 6.44772 30 7V8.6L17.029 16.3826C16.3956 16.7626 15.6044 16.7626 14.971 16.3826L2 8.6Z" fill="#F3EEF8"/>
        </g>
      </g>
      <text id="ITEM_1_HEAD" x="0.0" y="-80.0" text-anchor="middle" font-weight="bold" font-size="36" fill="var(--semantic-claim)" data-bg-id="ITEM_1_BG" fill-opacity="1.0" style="font-size: 31px; font-family: 'Segoe UI Variable Display', 'Aptos Display', 'Inter', 'Segoe UI', Helvetica, Arial, sans-serif; font-weight: 700; font-kerning: normal; font-feature-settings: &quot;kern&quot; 1, &quot;liga&quot; 1; letter-spacing:-0.4px;" data-final-font-size="31">
        <tspan x="0.0" dy="35.07px">Message Fabrication</tspan>
      </text>
      <rect id="ITEM_1_HEAD_FRAME" x="-180" y="-80" width="360" height="45" fill="none"/>
    </g>
    <g transform="translate(210.0, 720)">
      <rect id="ITEM_2_BG" x="-180.0" y="-150" width="360" height="390" rx="24" fill="var(--semantic-claim)" fill-opacity="1.0" stroke="var(--accent-1)" stroke-width="2.6"/>
      <text id="ITEM_2_HEAD" x="0.0" y="8.0" text-anchor="middle" font-weight="bold" font-size="30" fill="var(--inverse-text)" data-bg-id="ITEM_2_BG" fill-opacity="1.0" style="font-size: 31px; font-family: 'Segoe UI Variable Display', 'Aptos Display', 'Inter', 'Segoe UI', Helvetica, Arial, sans-serif; font-weight: 700; font-kerning: normal; font-feature-settings: &quot;kern&quot; 1, &quot;liga&quot; 1; letter-spacing:-0.4px;" data-final-font-size="31">
        <tspan x="0.0" dy="49.82px">Role Assumption</tspan>
      </text>
      <rect id="ITEM_2_HEAD_FRAME" x="-150.0" y="8" width="300" height="70" fill="none"/>
      <text id="ITEM_2_BODY" x="0.0" y="82.0" text-anchor="middle" font-size="23" fill="var(--inverse-text)" opacity="0.94" data-bg-id="ITEM_2_BG" data-max-lines="5" style="font-size: 23px; font-family: 'Segoe UI Variable Text', 'Aptos', 'Inter', 'Segoe UI', Helvetica, Arial, sans-serif; font-weight: 400; font-kerning: normal; font-feature-settings: &quot;kern&quot; 1, &quot;liga&quot; 1;" data-final-font-size="23">
        <tspan x="0.0" dy="33.31px">Researcher Henry Riecken adopted</tspan>
        <tspan x="0.0" dy="26.45px">a spiritual authority role</tspan>
      </text>
      <rect id="ITEM_2_BODY_FRAME" x="-174" y="82" width="348" height="108" fill="none"/>
      <circle id="ITEM_2_PAD" cx="0" cy="-45.0" r="62" fill="var(--icon-pad-bg)" stroke="var(--semantic-claim)" stroke-width="2" stroke-opacity="0.72" opacity="1" fill-opacity="0.9" data-badge-layer="pad"/>
      <circle id="ITEM_2_PAD_INNER" cx="0" cy="-45.0" r="48.36" fill="var(--semantic-claim)" fill-opacity="0.12" stroke="none" data-badge-layer="tint"/>
      <circle cx="0" cy="-45.0" r="49.6" fill="none" stroke="var(--accent-1)" stroke-width="3" stroke-dasharray="6 4" display="none" data-suppressed-decoration="redundant-badge-ring"/>
      <g id="ITEM_2_ICON" transform="translate(-48.0, -93.0)" data-icon-size="96" stroke-linecap="round" stroke-linejoin="round" data-badge-treatment="clean">
        <g transform="translate(-3.1576859504132244,-2.7580165289256193) scale(0.7993388429752066)">
          <path fill="#62453B" d="M70.45 7.61s-.21-3.53-6.01-3.65s-7.9 4.41-10.21 3.86c-2.43-.57-1.43-2.35-1.97-2.52s-2.27.92-2.31 2.73s.29 2.02.29 2.02s-2.48.4-3.4 3.65c-1.18 4.16 1.26 6.05 1.26 6.05s-2.26 1.9-1 5.88c.86 2.73 2.56 2.62 2.52 4.17s-1.22 1.58-1.18 2.26s.72 1.24 1.55 1.64c1.24.6 2.23.17 2.23.17s.77 1.42 2.69 1.89c3.87.94 5.86-.84 5.86-.84l1.33-1.29s3.48 2.14 7.38 2.22s5.34-1.06 5.34-1.27s-.71-.97-.71-.97s1.26.34 2.69-.38s1.3-1.81 1.09-2.18s-1.91-.51-1.72-2.18c.29-2.6 2.76-2.46 2.73-6.85c-.03-3.45-2.1-4.54-2.1-4.54s2.27-2.94-.67-7.01c-2.59-3.59-5.67-2.86-5.67-2.86z"/>
          <path fill="#FFCA26" d="M49.97 60c-.09.87-.15 1.59-.16 2.09c-.08 4-.8 11.04-.75 11.35c.11.64 1.32 1.86 1.63 5.32c.1 1.09-.06 2.34-.24 2.51c-.5.45-1.1-.07-1.37-1.54c-.16-.88-.67-1.21-.87-.67c-.3.82-.17 1.45.19 2.94c.32 1.32.73 1.91.56 2.68c-.09.4-.74 1.11-1.07.4c-.23-.5-.36-.71-.36-.71s-.33.38-1.04-.21c-1.64-1.35-3.6-3.07-3.69-4.84c-.14-2.68.8-4.8.87-5.78s-.6-5.6-.36-9.49c.07-1.11.65-3.99.79-5.91c.05-.64.13-1.35.24-2.09c2.56 2.07 3.93 2.94 5.64 3.96h-.01zm27.54-13.92s-2.03-2.13-4.65-.96c-.64.29 3.24 12.5 3.75 16.65c.49 3.97 1.93 10.9 1.91 11.22c-.04.65-1.12 1.99-1.08 5.46c.01 1.09.3 2.32.5 2.47c.54.39 1.09-.19 1.21-1.68c.07-.9.54-1.27.79-.76c.39.78.32 1.43.11 2.95c-.18 1.34-.53 1.98-.29 2.72c.13.39.85 1.03 1.11.29c.18-.52.28-.74.28-.74s.36.34 1.02-.32c1.5-1.51 3.27-3.43 3.17-5.19c-.14-2.68-1.28-4.7-1.46-5.66c-.17-.97.03-5.64-.62-9.47c-.18-1.1-1.05-3.91-1.39-5.8c-1.09-6.07-4.37-11.17-4.37-11.17z"/>
          <path fill="#F09E00" d="m44.14 56.93l-.16 2.29s1.43 1.7 3.35 2.74c1.25.67 1.5 2.54 1.44 3.47s-.6 7.13-.44 7.73s1.31 1.46 1.58 2.23s-.82-2.61-.82-2.61s.6-6.81.71-8.55s.22-5.06.22-5.06l-5.88-2.23zm33.16 9.25s-.13-3.4.35-4.49c.53-1.22 1.86-1.89 2.64-2.3s1.85-.89 1.85-.89l-.59-2.89l-5.57 3.7s.53 2.04.63 2.46s.42 3.56.69 4.41"/>
          <path fill="#BB6117" d="M47.29 83.95s-2.23-2.84-1.96-3.66c.09-.27.59-.18.72.25c.3.99 1.23 3.41 1.24 3.41m-1.7-.57s-2.45-2.66-1.86-2.95c.25-.13.57.81.89 1.38s.97 1.57.97 1.57m35.75-.13s1.93-3.05 1.57-3.84c-.12-.26-.61-.12-.69.32c-.2 1.02-.88 3.52-.88 3.52m1.63-.74s2.17-2.89 1.54-3.13c-.26-.1-.49.86-.74 1.47s-.8 1.66-.8 1.66m-33.3-1.31c0-.09-.29-1.48-.33-1.85s-.24-1.29-.78-1.17c-.66.14-1 .71-.87 1.51c.28 1.68.87 3.26 1.03 3.53s-.51-2.15-.56-2.98c-.05-.89.03-1.36.3-1.42c.43-.1.53.99.81 1.75c.23.62.39.62.39.62zm29.22-.79s.14-.32.19-.75s.19-1.36.5-1.4s.56.54.6 1.02s-.16 2.54-.41 3.48s-.03 1.55.15 1.68c.05-.34.11-1.11.24-1.69c.19-.85.55-2.76.41-3.72s-.54-1.5-1.24-1.28c-.56.17-.57 1.2-.57 1.61s.12 1.07.12 1.07z"/>
          <path fill="#359" d="M53.57 110s.33 2.66-.47 4.62c-.71 1.76-2.69 3.73-3.05 6.37c-.15 1.12 1.37 2.08 1.8 2.32c2.73 1.52 6.09.52 7.01-1.92c.54-1.44.73-2.4 1.16-3.17s1.06-1.69 1.06-2.56s.02-6.06.02-6.06l-7.55.39zm21.25-.26s-.33 2.66.47 4.62c.71 1.76 2.69 3.73 3.05 6.37c.15 1.12-1.37 2.08-1.8 2.32c-2.73 1.52-6.09.52-7.01-1.92c-.54-1.44-.73-2.4-1.16-3.17s-1.06-1.69-1.06-2.56s-.02-6.06-.02-6.06l7.55.39z"/>
          <path fill="#7C7C7C" d="M51.91 68.9s-.47 6.56-.18 21.93c.19 10.18.79 19.87.89 20.25s2.12.88 4.14.87c2.69-.02 4.68-.54 4.82-1.05s1.15-6.94 1.25-13.39c.04-2.63.06-4.92.11-6.99c.1-4.09.35-6.91 1.18-6.87c.67.03.79 3.19.93 6.49c.12 2.88.29 5.87.29 7.02c0 2.46 1.18 12.95 1.2 13.32s2.27 1.31 4.7 1.22s4.41-.52 4.45-.92s.6-11.68.6-19.88s-.48-22.61-.48-22.61l-14.22-3.94l-9.69 4.55z"/>
          <path fill="#686868" d="m63.48 62.1l-11.6 7.34l-.13 2.84s6.62 2.52 11.96 2.31c7.94-.3 12.21-2.65 12.21-2.65l-.09-3.2l-12.35-6.65z"/>
          <path fill="#F09E00" d="m54.91 38.19l3.88-1.61s.07-.58.05-1.24c-.05-1.54-.04-3.07-.04-3.07l8.4.04s-.01.93 0 2.63c0 .44.06 1.12.05 1.53l3.88.88l-8.45 4.12l-7.77-3.3z"/>
          <path fill="#F06E00" d="M74.53 38.35c-2.14-1.33-7.25-2.02-7.25-2.02s-.08 3.1-4.07 3.22c-3.56.11-4.47-3.09-4.47-3.09s-4.31.73-7.46 2.25c-2.63 1.27-3.54 3.31-4.81 7.03c-1.26 3.73-4.07 9.67-3.8 10.13c.38.65 1.21 1.27 2.86 2.53s3.3 1.89 3.3 1.89l1.89-1.14l1.14 2.15s.06 1.86 0 2.68s-.41 5.35.09 5.66s5.55 2.94 12.12 2.69s11.47-2.36 11.75-3.22c.19-.6-.06-4.69-.09-5.67c-.06-1.9-.19-3.15-.19-3.15l1.14-2.97l1.83 1.52s1.29-.65 3-1.91s2.56-2.01 2.56-2.57s-3.38-6.78-5.14-9.58c-1.71-2.72-2.12-5.02-4.39-6.42h-.01z"/>
          <path fill="#DA4C00" d="M75.54 60.29s-.26-4.08-.3-5.7s-.7-5.76.33-6.13c1.23-.44 1.63 3.24 1.86 4.91s1.08 5.47 1.08 5.47s-.75.44-1.5.81c-.68.33-1.47.65-1.47.65zm-26.71 0s.61-3.42.83-5.57s.48-5.17.82-5.74s1.19-.53 1.34.35s0 6.74 0 7.93s.08 4.21.08 4.21s-.62-.24-1.43-.52c-1.03-.35-1.63-.66-1.63-.66z"/>
          <path fill="#E59502" d="M50.47 21.76s-2.35.37-1.78 3.55c.68 3.76 4.25 2.79 4.25 2.79l-1.73-2.16s-.37-1.1-.53-2.26s-.22-1.92-.21-1.92m24.38.27c.4-.17 2.17.16 1.97 2.88c-.25 3.44-2.54 3.51-3.1 3.51s-1.85-1.55-1.85-1.55s2.4-.84 2.62-1.43s.36-3.41.36-3.41"/>
          <path fill="#FFCA26" d="M52.64 18.26c-.37.4-.29 7.1-.72 7.56c-.37.4-.74-.03-.74-.03s1.71 9.98 11.72 9.98c4.45 0 6.99-1.75 8.69-3.81c2.52-3.06 2.91-6.52 2.91-6.52s-.14.41-.51.36c-.22-.03-.45-.05-.54-.62c-.11-.66-.5-7.15-2.09-8.65c-1.78-1.67-3.24-1.36-3.24-1.36s-.65-1.73-3.39-2.16c-2.16-.34-3.85 1.21-7.32 3.32c-2.01 1.22-4.77 1.92-4.77 1.92z"/>
          <path fill="#E59700" d="M62.84 26.13c-1.07.02-1.47-.34-1.85.04c-.35.35-.04.85.54 1.3c.78.61 1.99.59 2.62.03s.89-1.03.49-1.37s-.71-.02-1.8 0"/>
          <path fill="#6D4C3F" d="M54.23 19.51c.28.45 1.22-.26 2.71-.3c1.22-.03 2.29.84 2.54.04c.3-.94-.71-1.35-2.52-1.26s-3.11.92-2.74 1.52z"/>
          <path fill="#785446" d="M66 19.46c.62.17 1.09-.28 2.35-.19c1.18.08 2.33.6 2.67.21s-.54-1.31-2.48-1.5c-1.75-.17-2.82.3-2.95.68s.15.72.41.79z"/>
          <path fill="#3F4040" d="M56.92 20.79c-1.43-.02-1.99 1.22-1.9 2.09s.75 1.71 2.01 1.69s1.86-.81 1.86-1.86s-.64-1.9-1.97-1.92m11.47-.04c-1.07-.11-2.05.64-2.01 1.92c.05 1.43 1.3 1.88 1.99 1.88c.98 0 1.78-.73 1.79-1.77c.02-1.18-.58-1.9-1.77-2.03"/>
          <path fill="#785447" d="M62.92 29.61c-1.58 0-3.09-.59-3.37.03c-.42.92 1.15 1.97 3.43 1.97c2.92 0 3.88-1.47 3.51-1.99s-1.74 0-3.57 0z"/>
        </g>
      </g>
    </g>
    <g transform="translate(693.3, 720)">
      <rect id="ITEM_3_BG" x="-180.0" y="-150" width="360" height="390" rx="24" fill="var(--semantic-claim)" fill-opacity="1.0" stroke="var(--accent-2)" stroke-width="2.6"/>
      <text id="ITEM_3_HEAD" x="0.0" y="8.0" text-anchor="middle" font-weight="bold" font-size="30" fill="var(--inverse-text)" data-bg-id="ITEM_3_BG" fill-opacity="1.0" style="font-size: 31px; font-family: 'Segoe UI Variable Display', 'Aptos Display', 'Inter', 'Segoe UI', Helvetica, Arial, sans-serif; font-weight: 700; font-kerning: normal; font-feature-settings: &quot;kern&quot; 1, &quot;liga&quot; 1; letter-spacing:-0.4px;" data-final-font-size="31">
        <tspan x="0.0" dy="49.82px">Critical Timing</tspan>
      </text>
      <rect id="ITEM_3_HEAD_FRAME" x="-150.0" y="8" width="300" height="70" fill="none"/>
      <text id="ITEM_3_BODY" x="0.0" y="82.0" text-anchor="middle" font-size="23" fill="var(--inverse-text)" opacity="0.94" data-bg-id="ITEM_3_BG" data-max-lines="5" style="font-size: 23px; font-family: 'Segoe UI Variable Text', 'Aptos', 'Inter', 'Segoe UI', Helvetica, Arial, sans-serif; font-weight: 400; font-kerning: normal; font-feature-settings: &quot;kern&quot; 1, &quot;liga&quot; 1;" data-final-font-size="23">
        <tspan x="0.0" dy="33.31px">Interventions occurred during key</tspan>
        <tspan x="0.0" dy="26.45px">prophecy moments and aftermaths</tspan>
      </text>
      <rect id="ITEM_3_BODY_FRAME" x="-174" y="82" width="348" height="108" fill="none"/>
      <circle id="ITEM_3_PAD" cx="0" cy="-45.0" r="62" fill="var(--icon-pad-bg)" stroke="var(--semantic-claim)" stroke-width="2" stroke-opacity="0.72" opacity="1" fill-opacity="0.9" data-badge-layer="pad"/>
      <circle id="ITEM_3_PAD_INNER" cx="0" cy="-45.0" r="48.36" fill="var(--semantic-claim)" fill-opacity="0.12" stroke="none" data-badge-layer="tint"/>
      <circle cx="0" cy="-45.0" r="49.6" fill="none" stroke="var(--accent-2)" stroke-width="3" stroke-dasharray="6 4" display="none" data-suppressed-decoration="redundant-badge-ring"/>
      <g id="ITEM_3_ICON" transform="translate(-48.0, -93.0)" data-icon-size="96" stroke-linecap="round" stroke-linejoin="round" data-badge-treatment="clean">
        <g transform="translate(-4.45830508474577,-4.45830508474577) scale(4.371525423728814)" vector-effect="non-scaling-stroke" stroke-width="2.86" stroke-linecap="round" stroke-linejoin="round" stroke-opacity="1.0">
          <path d="M12 6v6l4 2" vector-effect="non-scaling-stroke" fill="none" stroke="#f1f5f9"/>
          <circle cx="12" cy="12" r="10" vector-effect="non-scaling-stroke" fill="none" stroke="#f1f5f9"/>
        </g>
      </g>
    </g>
    <g transform="translate(1226.7, 720)">
      <rect id="ITEM_4_BG" x="-180.0" y="-150" width="360" height="390" rx="24" fill="var(--semantic-claim)" fill-opacity="1.0" stroke="var(--accent-3)" stroke-width="2.6"/>
      <text id="ITEM_4_HEAD" x="0.0" y="8.0" text-anchor="middle" font-weight="bold" font-size="30" fill="var(--inverse-text)" data-bg-id="ITEM_4_BG" fill-opacity="1.0" style="font-size: 31px; font-family: 'Segoe UI Variable Display', 'Aptos Display', 'Inter', 'Segoe UI', Helvetica, Arial, sans-serif; font-weight: 700; font-kerning: normal; font-feature-settings: &quot;kern&quot; 1, &quot;liga&quot; 1; letter-spacing:-0.4px;" data-final-font-size="31">
        <tspan x="0.0" dy="49.82px">Disclosure Failure</tspan>
      </text>
      <rect id="ITEM_4_HEAD_FRAME" x="-150.0" y="8" width="300" height="70" fill="none"/>
      <text id="ITEM_4_BODY" x="0.0" y="82.0" text-anchor="middle" font-size="23" fill="var(--inverse-text)" opacity="0.94" data-bg-id="ITEM_4_BG" data-max-lines="5" style="font-size: 23px; font-family: 'Segoe UI Variable Text', 'Aptos', 'Inter', 'Segoe UI', Helvetica, Arial, sans-serif; font-weight: 400; font-kerning: normal; font-feature-settings: &quot;kern&quot; 1, &quot;liga&quot; 1;" data-final-font-size="23">
        <tspan x="0.0" dy="33.31px">Active research interventions were</tspan>
        <tspan x="0.0" dy="26.45px">omitted from published accounts</tspan>
      </text>
      <rect id="ITEM_4_BODY_FRAME" x="-174" y="82" width="348" height="108" fill="none"/>
      <circle id="ITEM_4_PAD" cx="0" cy="-45.0" r="62" fill="var(--icon-pad-bg)" stroke="var(--semantic-claim)" stroke-width="2" stroke-opacity="0.72" opacity="1" fill-opacity="0.9" data-badge-layer="pad"/>
      <circle id="ITEM_4_PAD_INNER" cx="0" cy="-45.0" r="48.36" fill="var(--semantic-claim)" fill-opacity="0.12" stroke="none" data-badge-layer="tint"/>
      <circle cx="0" cy="-45.0" r="49.6" fill="none" stroke="var(--accent-3)" stroke-width="3" stroke-dasharray="6 4" display="none" data-suppressed-decoration="redundant-badge-ring"/>
      <g id="ITEM_4_ICON" transform="translate(-48.0, -93.0)" data-icon-size="96" stroke-linecap="round" stroke-linejoin="round" data-badge-treatment="clean">
        <g transform="translate(-3.180999999999994,-3.583999999999999) scale(0.20149999999999998)" vector-effect="non-scaling-stroke" fill="#f1f5f9" fill-opacity="1.0" stroke="none">
          <path fill="#f1f5f9" d="M254.28 17.313c-81.048 0-146.624 65.484-146.624 146.406V236h49.594v-69.094c0-53.658 43.47-97.187 97.03-97.187c53.563 0 97.032 44.744 97.032 97.186V236h49.594v-72.28c0-78.856-65.717-146.407-146.625-146.407zM85.157 254.688c-14.61 22.827-22.844 49.148-22.844 76.78c0 88.358 84.97 161.5 191.97 161.5c106.998 0 191.968-73.142 191.968-161.5c0-27.635-8.26-53.95-22.875-76.78H85.155zM254 278.625c22.34 0 40.875 17.94 40.875 40.28c0 16.756-10.6 31.23-25.125 37.376l32.72 98.126h-96.376l32.125-98.125c-14.526-6.145-24.532-20.62-24.532-37.374c0-22.338 17.972-40.28 40.312-40.28z" vector-effect="non-scaling-stroke" stroke="none"/>
        </g>
      </g>
    </g>
    <g transform="translate(1710.0, 720)">
      <rect id="ITEM_5_BG" x="-180.0" y="-150" width="360" height="390" rx="24" fill="var(--semantic-claim)" fill-opacity="1.0" stroke="var(--accent-4)" stroke-width="2.6"/>
      <text id="ITEM_5_HEAD" x="0.0" y="8.0" text-anchor="middle" font-weight="bold" font-size="30" fill="var(--inverse-text)" data-bg-id="ITEM_5_BG" fill-opacity="1.0" style="font-size: 31px; font-family: 'Segoe UI Variable Display', 'Aptos Display', 'Inter', 'Segoe UI', Helvetica, Arial, sans-serif; font-weight: 700; font-kerning: normal; font-feature-settings: &quot;kern&quot; 1, &quot;liga&quot; 1; letter-spacing:-0.4px;" data-final-font-size="31">
        <tspan x="0.0" dy="33.55px">Methodological</tspan>
        <tspan x="0.0" dy="32.55px">Contamination</tspan>
      </text>
      <rect id="ITEM_5_HEAD_FRAME" x="-150.0" y="8" width="300" height="70" fill="none"/>
      <text id="ITEM_5_BODY" x="0.0" y="82.0" text-anchor="middle" font-size="23" fill="var(--inverse-text)" opacity="0.94" data-bg-id="ITEM_5_BG" data-max-lines="5" style="font-size: 23px; font-family: 'Segoe UI Variable Text', 'Aptos', 'Inter', 'Segoe UI', Helvetica, Arial, sans-serif; font-weight: 400; font-kerning: normal; font-feature-settings: &quot;kern&quot; 1, &quot;liga&quot; 1;" data-final-font-size="23">
        <tspan x="0.0" dy="33.31px">Researcher actions altered</tspan>
        <tspan x="0.0" dy="26.45px">the environment being studied</tspan>
      </text>
      <rect id="ITEM_5_BODY_FRAME" x="-174" y="82" width="348" height="108" fill="none"/>
      <circle id="ITEM_5_PAD" cx="0" cy="-45.0" r="62" fill="var(--icon-pad-bg)" stroke="var(--semantic-claim)" stroke-width="2" stroke-opacity="0.72" opacity="1" fill-opacity="0.9" data-badge-layer="pad"/>
      <circle id="ITEM_5_PAD_INNER" cx="0" cy="-45.0" r="48.36" fill="var(--semantic-claim)" fill-opacity="0.12" stroke="none" data-badge-layer="tint"/>
      <circle cx="0" cy="-45.0" r="49.6" fill="none" stroke="var(--accent-4)" stroke-width="3" stroke-dasharray="6 4" display="none" data-suppressed-decoration="redundant-badge-ring"/>
      <g id="ITEM_5_ICON" transform="translate(-48.0, -93.0)" data-icon-size="96" stroke-linecap="round" stroke-linejoin="round" data-badge-treatment="clean">
        <g transform="translate(-7.268571428571428,-7.70035714285714) scale(3.454285714285714)">
          <path d="M4.71839 18.0233C5.11525 17.458 5.8952 17.3215 6.46045 17.7184L18.5318 26.1936L17.0946 28.2406L5.02328 19.7653C4.45803 19.3685 4.32152 18.5885 4.71839 18.0233Z" fill="#5092FF"/>
          <path d="M18.5013 2.80347C18.8302 2.3598 19.4615 2.25982 19.9114 2.58017L21.5841 3.77124C22.034 4.09158 22.1321 4.71094 21.8032 5.15461L13.1102 16.8809C12.4436 17.7801 11.1641 17.9827 10.2523 17.3335C9.34053 16.6842 9.14176 15.429 9.80835 14.5298L18.5013 2.80347Z" fill="#636363"/>
          <path d="M18.0472 3.66594C16.8384 3.31432 15.3804 3.86071 14.5971 4.91739L11.7749 8.7243L11.9999 10.0001L10.6024 10.306L10.3989 10.5805C9.07399 12.3677 9.47824 14.8692 11.3018 16.1677C13.1254 17.4662 15.6778 17.07 17.0027 15.2828L17.1623 15.0675L16.9999 13.5001H18.3242L18.4883 13.2787C21.992 13.9302 23.8684 16.851 23.963 19.8545C24.0149 21.5041 23.5209 23.1307 22.4806 24.3899C21.4537 25.6329 19.8112 26.6185 17.3793 26.8486C16.5451 26.9276 15.9304 27.6956 16.0062 28.564C16.082 29.4325 16.8197 30.0725 17.6539 29.9935C20.7829 29.6974 23.1847 28.3804 24.7802 26.4491C26.3624 24.5339 27.069 22.1145 26.9946 19.751C26.8719 15.8564 24.6058 11.9837 20.5048 10.5586L21.2008 9.61967C21.9842 8.56299 22.0639 7.03517 21.3491 6.01708L18.0472 3.66594Z" fill="#BEBEBE"/>
          <path d="M2 29.2C2 27.4327 3.43269 26 5.2 26H26.8C28.5673 26 30 27.4327 30 29.2C30 29.6418 29.6418 30 29.2 30H2.8C2.35817 30 2 29.6418 2 29.2Z" fill="#9B9B9B"/>
          <path d="M11.7757 8.70947L18.3343 13.4746L17.1588 15.0927L10.6001 10.3275L11.7757 8.70947Z" fill="#D3D3D3"/>
        </g>
      </g>
    </g>
  </g>
  <text id="SOURCE_NOTE" x="134.0" y="1058.0" fill="var(--muted-text)" opacity="1" style="font-family: var(--font-family); font-size: 20px;">Source: Online Library Debunking “When Prophecy Fails”</text>
</svg>
