<?xml version='1.0' encoding='utf-8'?>
<svg xmlns="http://www.w3.org/2000/svg" width="1920" height="1080" viewBox="0 0 1920 1080" data-theme="dark" data-semantic-intent="loop_system" data-relation-type="taxonomy" data-site-visual-identity="signal-cobalt">
  <style>
        @font-face {
            font-family: 'Inter';
            src: url('assets/fonts/Inter-Regular.ttf') format('truetype');
            font-weight: 400;
            font-style: normal;
            font-display: swap;
        }
        @font-face {
            font-family: 'Inter';
            src: url('assets/fonts/Inter-Bold.ttf') format('truetype');
            font-weight: 600;
            font-style: normal;
            font-display: swap;
        }
        @font-face {
            font-family: 'Inter';
            src: url('assets/fonts/Inter-Bold.ttf') format('truetype');
            font-weight: 800;
            font-style: normal;
            font-display: swap;
        }
        
:root {
    --background: #0f172a;
    --panel: #1e293b;
    --primary-text: #f1f5f9;
    --muted-text: #94a3b8;
    --inverse-text: #0f172a;
    --border: #334155;
    --shadow-color: #000000;
    --icon-pad-bg: #1e293b;
    --art-glow: #7dd3fc;
    --art-glow-opacity: 0.18;
    --art-sheen: #ffffff;
    --art-sheen-opacity: 0.18;
    --art-shadow: #000000;
    --art-shadow-opacity: 0.28;
    --art-muted-line: #64748b;
    --art-panel-tint: #1e293b;
    --semantic-risk: #f87171;
    --semantic-warning: #fb923c;
    --semantic-uncertain: #fbbf24;
    --semantic-evidence: #60a5fa;
    --semantic-claim: #c084fc;
    --semantic-positive: #4ade80;
    --semantic-outcome: #22d3ee;
    --font-family: 'Inter', 'Segoe UI', 'Kalam', Roboto, Helvetica, Arial, sans-serif;
    --radius-xl: 16px;
    --font-family-headline: 'Segoe UI Variable Display', 'Aptos Display', 'Inter', 'Segoe UI', Helvetica, Arial, sans-serif;
    --font-family-body: 'Segoe UI Variable Text', 'Aptos', 'Inter', 'Segoe UI', Helvetica, Arial, sans-serif;
    --font-heading: var(--font-family-headline);
    --font-body: var(--font-family-body);
    --font-size-h1: 64px;
    --font-size-h2: 42px;
    --font-size-h3: 29px;
    --font-size-body: 21px;
    --font-size-caption: 17px;
    --secondary-text: var(--muted-text);
    --panel-border: var(--border);
    --font-weight-normal: 400;
    --font-weight-medium: 500;
    --font-weight-semibold: 600;
    --font-weight-bold: 700;
    --spacing-gutter-pct: 0.07;
    --spacing-top-pct: 0.15;
    --spacing-bottom-pct: 0.07;
    --spacing-title-y-pct: 0.055;
    --accent-1: #93c5fd;
    --accent-2: #60a5fa;
    --accent-3: #818cf8;
    --accent-4: #a78bfa;
    --accent-5: #38bdf8;
    --accent-6: #fb923c;
}
:root[data-theme="dark"] {
    --background: #0f172a;
    --panel: #1e293b;
    --primary-text: #f1f5f9;
    --muted-text: #94a3b8;
    --inverse-text: #0f172a;
    --border: #334155;
    --shadow-color: #000000;
    --icon-pad-bg: #1e293b;
    --art-glow: #7dd3fc;
    --art-glow-opacity: 0.18;
    --art-sheen: #ffffff;
    --art-sheen-opacity: 0.18;
    --art-shadow: #000000;
    --art-shadow-opacity: 0.28;
    --art-muted-line: #64748b;
    --art-panel-tint: #1e293b;
    --semantic-risk: #f87171;
    --semantic-warning: #fb923c;
    --semantic-uncertain: #fbbf24;
    --semantic-evidence: #60a5fa;
    --semantic-claim: #c084fc;
    --semantic-positive: #4ade80;
    --semantic-outcome: #22d3ee;
    --accent-1: #93c5fd;
    --accent-2: #60a5fa;
    --accent-3: #818cf8;
    --accent-4: #a78bfa;
    --accent-5: #38bdf8;
    --accent-6: #fb923c;
}
:root[data-theme="light"] {
    --background: #f8fafc;
    --panel: #ffffff;
    --primary-text: #0f172a;
    --muted-text: #64748b;
    --inverse-text: #ffffff;
    --border: #e2e8f0;
    --shadow-color: #000000;
    --icon-pad-bg: #1e293b;
    --art-glow: #0891b2;
    --art-glow-opacity: 0.10;
    --art-sheen: #ffffff;
    --art-sheen-opacity: 0.34;
    --art-shadow: #0f172a;
    --art-shadow-opacity: 0.14;
    --art-muted-line: #94a3b8;
    --art-panel-tint: #f1f5f9;
    --semantic-risk: #b91c1c;
    --semantic-warning: #c2410c;
    --semantic-uncertain: #a16207;
    --semantic-evidence: #1d4ed8;
    --semantic-claim: #6d28d9;
    --semantic-positive: #15803d;
    --semantic-outcome: #0e7490;
    --accent-1: #1d4ed8;
    --accent-2: #2563eb;
    --accent-3: #4f46e5;
    --accent-4: #6d28d9;
    --accent-5: #0369a1;
    --accent-6: #c2410c;
}</style>
  <rect x="0" y="0" width="1.92E+3" height="1.08E+3" fill="#0f172a" stroke="none" id="programmatic_background"/>
  <line id="HEADER_DECOR" x1="960.0" x2="1080.0" y1="105.0" y2="105.0" stroke="var(--accent-1)" stroke-width="6" stroke-linecap="round"/>
  <defs>
    <pattern id="svgc11c195b-napkin-hatch" patternUnits="userSpaceOnUse" width="12" height="12">
      <path d="M -3 12 L 12 -3 M 0 15 L 15 0" fill="none" stroke="var(--primary-text)" stroke-width="1" stroke-opacity="0.05"/>
    </pattern>
    <filter id="svgc11c195b-shadow" x="-30%" y="-30%" width="160%" height="160%">
      <feDropShadow dx="0" dy="3" stdDeviation="6" flood-color="#000000" flood-opacity="0.10"/>
      <feDropShadow dx="0" dy="8" stdDeviation="12" flood-color="#000000" flood-opacity="0.16"/>
    </filter>
    <radialGradient id="svgc11c195b-universal-edge-vignette" cx="50%" cy="50%" r="72%">
      <stop offset="0%" stop-color="var(--background)" stop-opacity="0"/>
      <stop offset="72%" stop-color="var(--background)" stop-opacity="0.12"/>
      <stop offset="100%" stop-color="var(--primary-text)" stop-opacity="0.08"/>
    </radialGradient>
    <linearGradient id="svgc11c195b-universal-surface-sheen" x1="0%" y1="0%" x2="100%" y2="100%">
      <stop offset="0%" stop-color="var(--art-sheen)" stop-opacity="var(--art-sheen-opacity)"/>
      <stop offset="46%" stop-color="var(--art-sheen)" stop-opacity="0.035"/>
      <stop offset="100%" stop-color="var(--art-panel-tint)" stop-opacity="0.14"/>
    </linearGradient>
    <radialGradient id="svgc11c195b-universal-icon-aura" cx="50%" cy="42%" r="64%">
      <stop offset="0%" stop-color="var(--art-glow)" stop-opacity="var(--art-glow-opacity)"/>
      <stop offset="100%" stop-color="var(--background)" stop-opacity="0"/>
    </radialGradient>
    <linearGradient id="svgc11c195b-card-panel-sheen" x1="0%" y1="0%" x2="100%" y2="100%">
      <stop offset="0%" stop-color="var(--inverse-text)" stop-opacity="0.20"/>
      <stop offset="48%" stop-color="var(--inverse-text)" stop-opacity="0.04"/>
      <stop offset="100%" stop-color="var(--background)" stop-opacity="0.16"/>
    </linearGradient>
    <radialGradient id="svgc11c195b-card-icon-glow" cx="50%" cy="35%" r="62%">
      <stop offset="0%" stop-color="var(--inverse-text)" stop-opacity="0.22"/>
      <stop offset="100%" stop-color="var(--background)" stop-opacity="0"/>
    </radialGradient>
    <filter id="svgc11c195b-text-glow" x="-20%" y="-20%" width="140%" height="140%">
      <feDropShadow dx="0" dy="0" stdDeviation="2" flood-color="#000000" flood-opacity="0.4"/>
    </filter>
    <marker id="svgc11c195b-arrowhead" markerWidth="10" markerHeight="7" refX="9" refY="3.5" orient="auto" markerUnits="strokeWidth">
      <polygon points="0 0, 10 3.5, 0 7" fill="var(--muted-text)" opacity="0.6"/>
    </marker>
  </defs>
  <rect width="100%" height="100%" fill="var(--background)" id="CANVAS_BG"/>
  <rect width="100%" height="100%" fill="url(#svgc11c195b-napkin-hatch)"/>
  <rect id="UNIVERSAL_EDGE_VIGNETTE" width="100%" height="100%" fill="url(#svgc11c195b-universal-edge-vignette)" opacity="0.62"/>
  <text id="TITLE" x="960.0" y="59" font-size="54" font-weight="800" fill="#f1f5f9" text-anchor="middle" style="font-size: 69px; font-family: 'Segoe UI Variable Display', 'Aptos Display', 'Inter', 'Segoe UI', Helvetica, Arial, sans-serif; font-weight: 800; font-kerning: normal; font-feature-settings: &quot;kern&quot; 1, &quot;liga&quot; 1; letter-spacing:-1.2px;" data-final-font-size="69">
    <tspan x="960.0" dy="70.47px">Unarius Academy of Science Beliefs</tspan>
  </text>
  <rect id="TITLE_FRAME" x="134" y="35" width="1652" height="78" fill="none"/>
  <rect x="120" y="150" width="1680" height="830" rx="40" fill="var(--panel)" fill-opacity="0.24" stroke="var(--muted-text)" stroke-width="2" opacity="0.94"/>
  <g id="DIAGRAM_MAIN">
    <g filter="url(#svgc11c195b-shadow)">
      <rect id="ITEM_1_BG" x="170" y="180" width="480" height="388" rx="28" fill="var(--panel)" fill-opacity="0.98" stroke="var(--accent-1)" stroke-width="3"/>
      <rect x="170" y="180" width="480" height="18" rx="9" fill="var(--accent-1)" fill-opacity="0.55"/>
      <rect x="295" y="216" width="230" height="30" rx="15" fill="var(--accent-1)" fill-opacity="0.10"/>
      <circle id="ITEM_1_PAD" cx="410" cy="262" r="54" fill="var(--icon-pad-bg)" opacity="1" fill-opacity="0.9" stroke-width="2" stroke="var(--accent-1)" stroke-opacity="0.72" data-badge-layer="pad"/>
      <circle id="ITEM_1_PAD_INNER" cx="410" cy="262" r="42.12" fill="var(--accent-1)" fill-opacity="0.12" stroke="none" data-badge-layer="tint"/>
      <circle cx="410" cy="262" r="42" fill="none" stroke="var(--accent-1)" stroke-width="3" stroke-dasharray="6 4" display="none" data-suppressed-decoration="redundant-badge-ring"/>
      <g id="ITEM_1_ICON" transform="translate(373, 225)" data-icon-size="74" stroke-linecap="round" stroke-linejoin="round" data-badge-treatment="clean">
        <g transform="translate(-10.292631578947374,-11.031578947368427) scale(0.18473684210526317)" vector-effect="non-scaling-stroke" fill="#f1f5f9" fill-opacity="1.0" stroke="none">
          <path fill="#f1f5f9" d="m265 34l47.898 35.924l61.563 123.123l-8.057 32.23l-24.943-4.158l3.16-10.533l2.842-9.473L256 182.823l-91.463 18.29l6.002 20.006l-24.943 4.156l-8.057-32.228L199.1 69.926L247 34v56h-39l-16 32l64 38l64-38l-16-32h-39zm188.313 169.258l30.3 10.101l-13.478 29.205l-30.016-5.001zm-394.626 0l13.194 34.304l-30.016 5.002l-13.478-29.205zM256 205.32l53.8 58.692L281.306 359h-50.61L202.2 264.012zm25.254.909l43.283 8.658l-8.715 29.052zm-50.508.002l-34.568 37.709l-8.715-29.053zm105.5 32.267L482.5 262.873L429.799 368.28L329.98 259.385zm-160.492 0l6.266 20.887L82.2 368.279L29.5 262.873zm148.205 40.96l72.201 78.765l-84.556-37.582zm-135.918 0l12.355 41.183l-84.556 37.582zm118.348 58.564l28.646 12.732L312.973 439H265v-62h29.695zm-100.778 0L217.305 377H247v62h-47.973l-22.062-88.246zM387.6 374.115l18.105 8.047l-9.984 21.635l-16.387-8.193zm-263.2 0l8.266 21.489l-16.387 8.193l-9.984-21.635zM311 457v30h-30v-30zm-80 0v30h-30v-30z" vector-effect="non-scaling-stroke" stroke="none"/>
        </g>
      </g>
      <text id="ITEM_1_HEAD" x="410.0" y="328.0" font-weight="800" font-size="28" fill="var(--accent-1)" text-anchor="middle" data-bg-id="ITEM_1_BG" fill-opacity="1.0" stroke="none" style="font-size: 31px; font-family: 'Segoe UI Variable Display', 'Aptos Display', 'Inter', 'Segoe UI', Helvetica, Arial, sans-serif; font-weight: 700; font-kerning: normal; font-feature-settings: &quot;kern&quot; 1, &quot;liga&quot; 1; letter-spacing:-0.4px;" data-final-font-size="31">
        <tspan x="410.0" dy="43.24px">Space Brothers</tspan>
      </text>
      <rect id="ITEM_1_HEAD_FRAME" x="230" y="328" width="360" height="56" fill="none"/>
      <text id="ITEM_1_BODY" x="410.0" y="378.0" font-size="18" fill="var(--primary-text)" text-anchor="middle" data-bg-id="ITEM_1_BG" style="font-size: 23px; font-family: 'Segoe UI Variable Text', 'Aptos', 'Inter', 'Segoe UI', Helvetica, Arial, sans-serif; font-weight: 400; font-kerning: normal; font-feature-settings: &quot;kern&quot; 1, &quot;liga&quot; 1;" data-final-font-size="23">
        <tspan x="410.0" dy="46.51px">Benevolent visitors bringing</tspan>
        <tspan x="410.0" dy="26.45px">scientific knowledge</tspan>
      </text>
      <rect id="ITEM_1_BODY_FRAME" x="195" y="378" width="430" height="156" fill="none"/>
    </g>
    <g filter="url(#svgc11c195b-shadow)">
      <rect id="ITEM_2_BG" x="720" y="180" width="480" height="388" rx="28" fill="var(--panel)" fill-opacity="0.98" stroke="var(--accent-2)" stroke-width="3"/>
      <rect x="720" y="180" width="480" height="18" rx="9" fill="var(--accent-2)" fill-opacity="0.55"/>
      <rect x="845" y="216" width="230" height="30" rx="15" fill="var(--accent-2)" fill-opacity="0.10"/>
      <circle id="ITEM_2_PAD" cx="960" cy="262" r="54" fill="var(--icon-pad-bg)" opacity="1" fill-opacity="0.9" stroke-width="2" stroke="var(--accent-2)" stroke-opacity="0.72" data-badge-layer="pad"/>
      <circle id="ITEM_2_PAD_INNER" cx="960" cy="262" r="42.12" fill="var(--accent-2)" fill-opacity="0.12" stroke="none" data-badge-layer="tint"/>
      <circle cx="960" cy="262" r="42" fill="none" stroke="var(--accent-2)" stroke-width="3" stroke-dasharray="6 4" display="none" data-suppressed-decoration="redundant-badge-ring"/>
      <g id="ITEM_2_ICON" transform="translate(923, 225)" data-icon-size="74" stroke-linecap="round" stroke-linejoin="round" data-badge-treatment="clean">
        <g transform="translate(-8.689491525423733,-14.4006779661017) scale(3.8074576271186444)" vector-effect="non-scaling-stroke" fill="#f1f5f9" fill-opacity="1.0" stroke="none">
          <path fill="#f1f5f9" d="M9 6v5H7V7H5v4H3V9H1v12h2v-2h2v2h2v-2h2v2h2v-2h2v2h2v-2h2v2h2v-2h2v2h2V9h-2v2h-2V7h-2v4h-2V6h-2v5h-2V6zm-6 7h2v4H3zm4 0h2v4H7zm4 0h2v4h-2zm4 0h2v4h-2zm4 0h2v4h-2z" vector-effect="non-scaling-stroke" stroke="none"/>
        </g>
      </g>
      <text id="ITEM_2_HEAD" x="960.0" y="328.0" font-weight="800" font-size="28" fill="var(--accent-2)" text-anchor="middle" data-bg-id="ITEM_2_BG" fill-opacity="1.0" stroke="none" style="font-size: 31px; font-family: 'Segoe UI Variable Display', 'Aptos Display', 'Inter', 'Segoe UI', Helvetica, Arial, sans-serif; font-weight: 700; font-kerning: normal; font-feature-settings: &quot;kern&quot; 1, &quot;liga&quot; 1; letter-spacing:-0.4px;" data-final-font-size="31">
        <tspan x="960.0" dy="43.24px">Reception Site</tspan>
      </text>
      <rect id="ITEM_2_HEAD_FRAME" x="780" y="328" width="360" height="56" fill="none"/>
      <text id="ITEM_2_BODY" x="960.0" y="378.0" font-size="18" fill="var(--primary-text)" text-anchor="middle" data-bg-id="ITEM_2_BG" style="font-size: 23px; font-family: 'Segoe UI Variable Text', 'Aptos', 'Inter', 'Segoe UI', Helvetica, Arial, sans-serif; font-weight: 400; font-kerning: normal; font-feature-settings: &quot;kern&quot; 1, &quot;liga&quot; 1;" data-final-font-size="23">
        <tspan x="960.0" dy="51.80px">Land acquired near Jamul for visitors</tspan>
      </text>
      <rect id="ITEM_2_BODY_FRAME" x="745" y="378" width="430" height="156" fill="none"/>
    </g>
    <g filter="url(#svgc11c195b-shadow)">
      <rect id="ITEM_3_BG" x="1270" y="180" width="480" height="388" rx="28" fill="var(--panel)" fill-opacity="0.98" stroke="var(--accent-3)" stroke-width="3"/>
      <rect x="1270" y="180" width="480" height="18" rx="9" fill="var(--accent-3)" fill-opacity="0.55"/>
      <rect x="1395" y="216" width="230" height="30" rx="15" fill="var(--accent-3)" fill-opacity="0.10"/>
      <circle id="ITEM_3_PAD" cx="1510" cy="262" r="54" fill="var(--icon-pad-bg)" opacity="1" fill-opacity="0.9" stroke-width="2" stroke="var(--accent-3)" stroke-opacity="0.72" data-badge-layer="pad"/>
      <circle id="ITEM_3_PAD_INNER" cx="1510" cy="262" r="42.12" fill="var(--accent-3)" fill-opacity="0.12" stroke="none" data-badge-layer="tint"/>
      <circle cx="1510" cy="262" r="42" fill="none" stroke="var(--accent-3)" stroke-width="3" stroke-dasharray="6 4" display="none" data-suppressed-decoration="redundant-badge-ring"/>
      <g id="ITEM_3_ICON" transform="translate(1473, 225)" data-icon-size="74" stroke-linecap="round" stroke-linejoin="round" data-badge-treatment="clean">
        <g transform="translate(-12.920000000000005,-15.260000000000002) scale(4.16)" vector-effect="non-scaling-stroke" fill="#f1f5f9" fill-opacity="1.0" stroke="none">
          <path fill="#f1f5f9" d="M3.5 19A1.5 1.5 0 0 1 5 20.5A1.5 1.5 0 0 1 3.5 22A1.5 1.5 0 0 1 2 20.5A1.5 1.5 0 0 1 3.5 19m5-3a2.5 2.5 0 0 1 2.5 2.5A2.5 2.5 0 0 1 8.5 21A2.5 2.5 0 0 1 6 18.5A2.5 2.5 0 0 1 8.5 16m6-1c-1.19 0-2.27-.5-3-1.35c-.73.85-1.81 1.35-3 1.35c-1.96 0-3.59-1.41-3.93-3.26A4.02 4.02 0 0 1 2 8a4 4 0 0 1 4-4c.26 0 .5.03.77.07C7.5 3.41 8.45 3 9.5 3c1.19 0 2.27.5 3 1.35c.73-.85 1.81-1.35 3-1.35c1.96 0 3.59 1.41 3.93 3.26A4.02 4.02 0 0 1 22 10a4 4 0 0 1-4 4l-.77-.07c-.73.66-1.68 1.07-2.73 1.07" vector-effect="non-scaling-stroke" stroke="none"/>
        </g>
      </g>
      <text id="ITEM_3_HEAD" x="1510.0" y="328.0" font-weight="800" font-size="28" fill="var(--accent-3)" text-anchor="middle" data-bg-id="ITEM_3_BG" fill-opacity="1.0" stroke="none" style="font-size: 31px; font-family: 'Segoe UI Variable Display', 'Aptos Display', 'Inter', 'Segoe UI', Helvetica, Arial, sans-serif; font-weight: 700; font-kerning: normal; font-feature-settings: &quot;kern&quot; 1, &quot;liga&quot; 1; letter-spacing:-0.4px;" data-final-font-size="31">
        <tspan x="1510.0" dy="43.24px">Past-Life Episodes</tspan>
      </text>
      <rect id="ITEM_3_HEAD_FRAME" x="1330" y="328" width="360" height="56" fill="none"/>
      <text id="ITEM_3_BODY" x="1510.0" y="378.0" font-size="18" fill="var(--primary-text)" text-anchor="middle" data-bg-id="ITEM_3_BG" style="font-size: 23px; font-family: 'Segoe UI Variable Text', 'Aptos', 'Inter', 'Segoe UI', Helvetica, Arial, sans-serif; font-weight: 400; font-kerning: normal; font-feature-settings: &quot;kern&quot; 1, &quot;liga&quot; 1;" data-final-font-size="23">
        <tspan x="1510.0" dy="46.51px">Traumatic memories used to explain</tspan>
        <tspan x="1510.0" dy="26.45px">timing errors</tspan>
      </text>
      <rect id="ITEM_3_BODY_FRAME" x="1295" y="378" width="430" height="156" fill="none"/>
    </g>
    <g filter="url(#svgc11c195b-shadow)">
      <rect id="ITEM_4_BG" x="260" y="580" width="660" height="370" rx="30" fill="var(--panel)" fill-opacity="0.98" stroke="var(--accent-4)" stroke-width="3"/>
      <rect x="260" y="590" width="660" height="18" rx="9" fill="var(--accent-4)" fill-opacity="0.55"/>
      <rect x="430" y="628" width="320" height="32" rx="16" fill="var(--accent-4)" fill-opacity="0.10"/>
      <circle id="ITEM_4_PAD" cx="590" cy="684" r="54" fill="var(--icon-pad-bg)" opacity="1" fill-opacity="0.9" stroke-width="2" stroke="var(--accent-1)" stroke-opacity="0.72" data-badge-layer="pad"/>
      <circle id="ITEM_4_PAD_INNER" cx="590" cy="684" r="42.12" fill="var(--accent-1)" fill-opacity="0.12" stroke="none" data-badge-layer="tint"/>
      <circle cx="590" cy="684" r="42" fill="none" stroke="var(--accent-4)" stroke-width="3" stroke-dasharray="6 4" display="none" data-suppressed-decoration="redundant-badge-ring"/>
      <g id="ITEM_4_ICON" transform="translate(551, 645)" data-icon-size="78" stroke-linecap="round" stroke-linejoin="round" data-badge-treatment="clean">
        <g transform="translate(-7.080000000000007,-8.880000000000006) scale(0.7200000000000001)">
          <path fill="#FFCA28" d="m102.8 89.9l-15.7 20.3s-14.6-8-18.4-10s-4.7-8.8-4.7-8.8s-.9 6.8-4.7 8.8s-18.4 10-18.4 10L25.2 89.9c5.4-2.5 8.7-5 10.9-6.8s4-4.8 4.8-7.8c.7-3 3.7-17.6 3.8-20s.8-5.4 2.3-7.8s2-6.6 3-11.8c1.7-9 3-13.5 3.3-15.7c.3-2.1.5-7.1.6-8.7c.1-1.4 1.7-3.2 4.3-3.3c4.1-.2 5.8 2.2 5.8 5.4c0-3.3 1.7-5.6 5.8-5.4c2.6.1 4.1 1.9 4.3 3.5c.1 1.6.3 6.6.6 8.7s1.6 6.7 3.3 15.7c1 5.2 1.6 9.5 3 11.8s2.2 5.4 2.3 7.8s3.1 17 3.8 20c.8 3 2.6 6 4.8 7.8c2.2 1.7 5.5 4.1 10.9 6.6"/>
          <path id="SVG2NhGOecI" d="M102.8 89.9c-5.4-2.5-8.7-5-10.9-6.8s-4-4.8-4.8-7.8s-3.7-17.6-3.8-20s-.8-5.4-2.3-7.8c-1.4-2.4-2-6.6-3-11.8c-1.7-9-3-13.5-3.3-15.7c-.3-2.1-.5-7.1-.6-8.7c-.1-1.4-1.7-3.2-4.2-3.3c-4.1-.2-5.9 2.2-5.9 5.4v78.1s.9 6.8 4.7 8.8s18.4 10 18.4 10z"/>
          <path id="SVGshosQdTq" d="M25.2 89.9c5.4-2.5 8.7-5 10.9-6.8s4-4.8 4.8-7.8c.7-3 3.7-17.6 3.8-20s.8-5.4 2.3-7.8c1.4-2.4 2-6.6 3-11.8c1.7-9 3-13.5 3.3-15.7c.3-2.1.5-7.1.6-8.7c.1-1.4 1.7-3.2 4.2-3.3c4.1-.2 5.9 2.2 5.9 5.4v78.1s-.9 6.8-4.7 8.8s-18.4 10-18.4 10z"/>
          <path d="M102.8 93.5s-9-6.1-11.7-8.1c-2.7-1.9-5.8-5-6.4-8.7s-2.4-13.3-2.8-16.1c-.3-2.6-.5-5.7-1.1-8.4c-.4-1.9-2.3-3.8-2.8-7.1c-.4-3.3-4.1-21-4.1-21s-1.5-7.5-1.5-9.1c0-3-.3-5.8-3.8-6s-2.2-3.4-2.1-3.7c.2-.2 8.1 0 8.1 0l30.1 82.1zm-10 8.6S80 94.7 78.5 93.5c-3 .6-13.6.5-13.9-13.5H62l-.5 22.7L85.8 113z"/>
          <path d="M25.2 93.5s9-6.1 11.7-8.1c2.7-1.9 5.8-5 6.4-8.7s2.4-13.3 2.8-16.1c.3-2.6.5-5.7 1.1-8.4c.4-1.9 2.3-3.8 2.8-7.1c.4-3.3 4.1-21 4.1-21s1.5-7.5 1.5-9.1c0-3 .3-5.8 3.8-6s2.2-3.4 2.1-3.7s-8.1 0-8.1 0L23.2 87.5zm10 8.6s12.8-7.4 14.3-8.6c3 .6 13.6.5 13.9-13.5H66l.5 22.7L42.2 113z"/>
          <path fill="#B55E19" d="M72.8 9.1c-2.6-.7-6.5-.6-6.5 6.1c2.1-2.7 7.7-1.8 8.3 3.3c.4 3.6 6.8 28.3 6.8 28.3s-2.8 1-3.2-.9s-4.5-21.3-4.8-22.9c-.4-1.6-.5-4-.9-4.8c-1.4-3.6-6.4-2-6.5.7c-.1 3.8-.1 7.7-.1 9.8c1.7-2.3 4.7-2.1 5.9-1.3c1.1.7 1.8 1.9 1.9 2.7c.8 5 1.8 12.3 2.1 14.3s1.2 5.2 1.7 6.8c.5 1.7 1.7 5.8 1.8 8c0 1.7-1.8 1.4-1.9.2c-.2-2.7-1.6-7.2-2.1-8.9s-1.4-5.3-1.8-8.9c-.4-3.5-1.1-8.1-1.4-9.8c-.7-3.8-6-3.3-6.3.1c-.3 2.7-.6 5.6.2 9.9c.5 2.6 1 10.2-.4 14.7c-.6 1.8-.7 5.4-.7 7.7c0 2.2-.2 25.5-.2 26.3s-.7.6-.7.6h-1.7l.6-84.3l10.3-.3c.1 0 2.2 3.3-.4 2.6" clip-path="url(#SVGY6ym8cFb)"/>
          <path fill="#B55E19" d="M55.2 9.1c2.6-.7 6.5-.6 6.5 6.1c-2.1-2.7-7.7-1.8-8.3 3.3c-.4 3.6-6.8 28.3-6.8 28.3s2.8 1 3.2-.9s4.5-21.3 4.8-22.9c.4-1.6.5-4 .9-4.8c1.4-3.6 6.4-2 6.5.7c.1 3.8.1 7.7.1 9.8c-1.7-2.3-4.7-2.1-5.9-1.3c-1.1.7-1.8 1.9-1.9 2.7c-.8 5-1.8 12.3-2.1 14.3s-1.2 5.2-1.7 6.8s-1.7 5.8-1.8 8c0 1.7 1.8 1.4 1.9.2c.2-2.7 1.6-7.2 2.1-8.9s1.4-5.3 1.8-8.9c.4-3.5 1.1-8.1 1.4-9.8c.7-3.8 6-3.3 6.3.1c.3 2.7.6 5.6-.2 9.9c-.5 2.6-1 10.2.4 14.7c.6 1.8.7 5.4.7 7.7c0 2.2.2 25.5.2 26.3c0 .7.7.7.7.7h1.7l-.6-84.4l-10.4-.3s-2.1 3.3.5 2.6" clip-path="url(#SVGy1zrMc0K)"/>
          <path fill="#2686C6" d="M114.9 94.4c-4.5-1.7-10.1-5.5-11.8-6.7s-2.7-.2-3 .5c-4.1 7.7-13.6 18.2-18.5 23.3c-.9.9-.4 2.2 0 2.6s11.6 10.1 11.6 10.1s14.3-9.6 21.7-29.8m-101.8 0c4.5-1.7 10.1-5.5 11.8-6.7s2.7-.2 3 .5c4.1 7.7 13.6 18.2 18.5 23.3c.9.9.4 2.2 0 2.6s-11.6 10.1-11.6 10.1s-14.3-9.6-21.7-29.8"/>
        </g>
      </g>
      <text id="ITEM_4_HEAD" x="590.0" y="754.0" font-weight="800" font-size="30" fill="var(--accent-1)" text-anchor="middle" data-bg-id="ITEM_4_BG" fill-opacity="1.0" stroke="none" style="font-size: 31px; font-family: 'Segoe UI Variable Display', 'Aptos Display', 'Inter', 'Segoe UI', Helvetica, Arial, sans-serif; font-weight: 700; font-kerning: normal; font-feature-settings: &quot;kern&quot; 1, &quot;liga&quot; 1; letter-spacing:-0.4px;" data-final-font-size="31">
        <tspan x="590.0" dy="44.48px">Human Readiness</tspan>
      </text>
      <rect id="ITEM_4_HEAD_FRAME" x="380" y="754" width="420" height="58" fill="none"/>
      <text id="ITEM_4_BODY" x="595.0" y="798.0" font-size="18" fill="var(--primary-text)" text-anchor="middle" data-bg-id="ITEM_4_BG" style="font-size: 23px; font-family: 'Segoe UI Variable Text', 'Aptos', 'Inter', 'Segoe UI', Helvetica, Arial, sans-serif; font-weight: 400; font-kerning: normal; font-feature-settings: &quot;kern&quot; 1, &quot;liga&quot; 1;" data-final-font-size="23">
        <tspan x="595.0" dy="44.52px">Visitors may wait for Earth's</tspan>
        <tspan x="595.0" dy="26.45px">spiritual preparation</tspan>
      </text>
      <rect id="ITEM_4_BODY_FRAME" x="360" y="798" width="470" height="148" fill="none"/>
    </g>
    <g filter="url(#svgc11c195b-shadow)">
      <rect id="ITEM_5_BG" x="1000" y="580" width="660" height="370" rx="30" fill="var(--panel)" fill-opacity="0.98" stroke="var(--accent-5)" stroke-width="3"/>
      <rect x="1000" y="590" width="660" height="18" rx="9" fill="var(--accent-5)" fill-opacity="0.55"/>
      <rect x="1170" y="628" width="320" height="32" rx="16" fill="var(--accent-5)" fill-opacity="0.10"/>
      <circle id="ITEM_5_PAD" cx="1330" cy="684" r="54" fill="var(--icon-pad-bg)" opacity="1" fill-opacity="0.9" stroke-width="2" stroke="var(--accent-2)" stroke-opacity="0.72" data-badge-layer="pad"/>
      <circle id="ITEM_5_PAD_INNER" cx="1330" cy="684" r="42.12" fill="var(--accent-2)" fill-opacity="0.12" stroke="none" data-badge-layer="tint"/>
      <circle cx="1330" cy="684" r="42" fill="none" stroke="var(--accent-5)" stroke-width="3" stroke-dasharray="6 4" display="none" data-suppressed-decoration="redundant-badge-ring"/>
      <g id="ITEM_5_ICON" transform="translate(1291, 645)" data-icon-size="78" stroke-linecap="round" stroke-linejoin="round" data-badge-treatment="clean">
        <g transform="translate(-9.031578947368427,-7.55368421052632) scale(0.18473684210526317)" vector-effect="non-scaling-stroke" fill="#f1f5f9" fill-opacity="1.0" stroke="none">
          <path fill="#f1f5f9" d="M353 26.1c-26.9 0-52 8.1-72.9 22L65.14 166l4.01 7.3L252.3 72.9c-19.5 23-31.2 52.7-31.2 85.2c0 41.3 19 78.2 48.7 102.4L76.78 197l-2.61 7.9l209.03 68.8l6.7-19.1c-31.4-20.6-52.2-56.2-52.2-96.5c0-63.6 51.7-115.3 115.3-115.3c63.7 0 115.3 51.7 115.3 115.3S416.7 273.4 353 273.4c-5.2 0-10.4-.3-15.4-1l-5.6 16c6.8 1.1 13.9 1.7 21 1.7c72.9 0 132-59.2 132-132s-59.1-132-132-132m-.6 119.5c-4.9.2-9.3 3.3-11.1 8.2c0 0-4.8 6.1-6.4 17.4c-.5 3.4.9 6.1.7 10.1c-.1 3.2-1.7 6.3-2.8 8.9c-9.6 23.6-24 54.7-34.8 82c-10.7 27.1-18.5 49.8-20.1 54.7l-163.2-25c-3-6.3-9.9-20.2-18.6-36.2c-10.57-19.4-24.35-41.2-33.73-58c-1.31-2.2-2.39-4.1-2.84-6.4c-.4-3.1.53-5.2-.1-7.8c-2.07-8.3-6.34-12.4-6.34-12.4c-2.61-5.2-8.89-7.2-14.01-4.6s-7.17 8.9-4.56 14c0 0 .79 5.9 6.33 12.5c1.71 2 3.97 2.5 6.23 4.6c1.74 1.7 2.64 4.1 3.5 6.1c8.04 17.4 17.62 41.4 27.07 61.4l21.72 44.3l32.53 5.9c-3 8.7-7.9 22.8-13.1 39.1c-7.4 23.8-14.6 52.6-20.93 72.6c-.5 3.2-1.7 5.5-2.9 8c-2 2-4.34 4-5.8 6c-4.96 8-5.11 15-5.11 15c-1.86 5 1.05 11 6.49 13s11.35-1 13.25-6c0 0 3.9-6 5.1-15c.3-3-.8-5-.7-9c.3-2.3.7-4.9 2.2-7c7.7-21 19.4-47.5 28-70.9c6.7-18 11.9-33.8 14.6-42l164.4 29.8c2.3 7.1 6.2 18.4 11 31.1c7.3 19 17.4 41 23.9 57c.8 2.1 1.7 3.7 1.8 6c-.1 3-1.4 5-1.1 8c.7 7 4.2 12 4.2 12c1.9 5 7.8 8 13.3 6c5.4-2 8.3-8 6.4-13c0 0 .1-6-4.3-12c-1.4-2-3.4-3-5.3-5c-1.4-1.7-1.5-3.9-2.5-6c-5.1-17-10.7-40-16.8-59.8c-2.3-7.3-4.6-14.2-6.6-20l12.6 2.3l16-24.5l-66.7-10.2c3.5-9 10.6-27.9 18.1-50.1c9.3-27.7 18.4-60.8 26.3-85.1c1-3.2 1.8-5.9 3.6-8.5c2.5-3.2 5.3-4.4 7.1-7.3c6.1-9.7 6.4-17.4 6.4-17.4c2.3-6.5-1-13.7-7.5-16c-1.6-.6-3.3-.8-4.9-.8m-27.7 273.5l-191.2 6.7l-6.7 16.5h207.7z" vector-effect="non-scaling-stroke" stroke="none"/>
        </g>
      </g>
      <text id="ITEM_5_HEAD" x="1330.0" y="754.0" font-weight="800" font-size="30" fill="var(--accent-2)" text-anchor="middle" data-bg-id="ITEM_5_BG" fill-opacity="1.0" stroke="none" style="font-size: 31px; font-family: 'Segoe UI Variable Display', 'Aptos Display', 'Inter', 'Segoe UI', Helvetica, Arial, sans-serif; font-weight: 700; font-kerning: normal; font-feature-settings: &quot;kern&quot; 1, &quot;liga&quot; 1; letter-spacing:-0.4px;" data-final-font-size="31">
        <tspan x="1330.0" dy="44.48px">Cycle Completion</tspan>
      </text>
      <rect id="ITEM_5_HEAD_FRAME" x="1120" y="754" width="420" height="58" fill="none"/>
      <text id="ITEM_5_BODY" x="1335.0" y="798.0" font-size="18" fill="var(--primary-text)" text-anchor="middle" data-bg-id="ITEM_5_BG" style="font-size: 23px; font-family: 'Segoe UI Variable Text', 'Aptos', 'Inter', 'Segoe UI', Helvetica, Arial, sans-serif; font-weight: 400; font-kerning: normal; font-feature-settings: &quot;kern&quot; 1, &quot;liga&quot; 1;" data-final-font-size="23">
        <tspan x="1335.0" dy="49.81px">Arrival linked to end of historical cycles</tspan>
      </text>
      <rect id="ITEM_5_BODY_FRAME" x="1100" y="798" width="470" height="148" fill="none"/>
    </g>
  </g>
  <text id="SOURCE_NOTE" x="134.0" y="1058.0" fill="var(--muted-text)" opacity="1" style="font-family: var(--font-family); font-size: 20px;">Source: Unarius Academy of Science | Encyclopedia.com</text>
  <text id="EDITORIAL_NOTE" x="1786.0" y="1058.0" fill="var(--semantic-uncertain)" opacity="1" style="font-family: var(--font-family); font-size: 20px;" text-anchor="end">Interpretations remain disputed; wording reflects source uncertainty.</text>
</svg>
